<svg width="20" height="16" viewBox="0 0 20 16" fill="none" xmlns="http://www.w3.org/2000/svg">
<path d="M18.9808 5.86597C17.6658 3.67597 14.7178 0 9.75175 0C4.78675 0 1.83775 3.67497 0.52275 5.86597C-0.17425 7.02797 -0.17425 8.47097 0.52275 9.63397C1.83875 11.824 4.78675 15.5 9.75175 15.5C14.7178 15.5 17.6658 11.825 18.9808 9.63397C19.6788 8.47197 19.6788 7.02897 18.9808 5.86597ZM17.6947 8.86298C16.5427 10.782 13.9788 14.001 9.75175 14.001C5.52475 14.001 2.96076 10.782 1.80876 8.86298C1.39776 8.17698 1.39776 7.32398 1.80876 6.63898C2.96076 4.71998 5.52575 1.50098 9.75175 1.50098C13.9798 1.50098 16.5437 4.71998 17.6947 6.63898C18.1067 7.32398 18.1067 8.17698 17.6947 8.86298ZM9.75175 3.50098C7.40875 3.50098 5.50175 5.40798 5.50175 7.75098C5.50175 10.094 7.40875 12.001 9.75175 12.001C12.0948 12.001 14.0018 10.094 14.0018 7.75098C14.0018 5.40798 12.0948 3.50098 9.75175 3.50098ZM9.75175 10.501C8.23475 10.501 7.00175 9.26798 7.00175 7.75098C7.00175 6.23398 8.23475 5.00098 9.75175 5.00098C11.2688 5.00098 12.5018 6.23398 12.5018 7.75098C12.5018 9.26798 11.2688 10.501 9.75175 10.501Z" fill="white"/>
</svg>
