<svg width="20" height="18" viewBox="0 0 20 18" fill="none" xmlns="http://www.w3.org/2000/svg">
<path d="M19.2293 7.11439C18.6533 6.15439 17.6933 4.85039 16.3573 3.70039L18.5273 1.53041C18.8203 1.23741 18.8203 0.762372 18.5273 0.469372C18.2343 0.176372 17.7593 0.176372 17.4663 0.469372L11.9332 6.00239L11.9313 6.00337L11.9302 6.00441L1.46525 16.4694C1.17225 16.7624 1.17225 17.2374 1.46525 17.5304C1.61125 17.6764 1.80325 17.7504 1.99525 17.7504C2.18725 17.7504 2.37925 17.6774 2.52525 17.5304L4.83525 15.2203C6.41925 16.2323 8.15223 16.7504 9.99723 16.7504C14.9442 16.7504 17.9033 13.0774 19.2283 10.8854C19.9263 9.72239 19.9263 8.27839 19.2293 7.11439ZM12.7472 9.00038C12.7472 10.5174 11.5132 11.7504 9.99723 11.7504C9.51923 11.7504 9.06824 11.6183 8.66624 11.3923L12.3883 7.67036C12.6153 8.07136 12.7472 8.52238 12.7472 9.00038ZM17.9453 10.1124C16.7853 12.0314 14.2102 15.2504 9.99925 15.2504C8.55825 15.2504 7.20126 14.8553 5.94026 14.1173L7.57524 12.4824C8.27824 12.9774 9.11326 13.2504 9.99626 13.2504C12.3393 13.2504 14.2463 11.3434 14.2463 9.00038C14.2463 8.11738 13.9733 7.28236 13.4783 6.57936L15.2952 4.7624C16.5272 5.8004 17.4142 7.00439 17.9432 7.88539C18.3542 8.57339 18.3543 9.42738 17.9453 10.1124ZM2.12825 12.7833C1.63025 12.1933 1.17324 11.5554 0.770244 10.8874C0.0742441 9.7214 0.074237 8.27737 0.769237 7.11537C2.09424 4.92337 5.05326 1.25038 10.0003 1.25038C10.9563 1.25038 11.8802 1.38838 12.8252 1.67238C13.2212 1.79138 13.4473 2.2094 13.3273 2.6064C13.2083 3.0034 12.7903 3.22835 12.3933 3.10835C11.5903 2.86735 10.8072 2.75038 9.99925 2.75038C5.78925 2.75038 3.21323 5.96938 2.05323 7.88838C1.64423 8.57338 1.64425 9.42737 2.05525 10.1154C2.41625 10.7134 2.82624 11.2864 3.27424 11.8164C3.54124 12.1324 3.50125 12.6064 3.18525 12.8734C3.04425 12.9924 2.87325 13.0504 2.70225 13.0504C2.48825 13.0504 2.27625 12.9593 2.12825 12.7833ZM10.1882 5.43538C10.2512 5.84438 9.97126 6.22736 9.56126 6.29036C8.40126 6.46936 7.46725 7.40437 7.28825 8.56337C7.23125 8.93437 6.91226 9.19935 6.54826 9.19935C6.51026 9.19935 6.47124 9.19638 6.43324 9.19038C6.02324 9.12738 5.74325 8.7444 5.80625 8.3354C6.08825 6.5074 7.50626 5.09036 9.33326 4.80836C9.73626 4.74636 10.1242 5.02638 10.1882 5.43538Z" fill="white"/>
</svg>
